<?xml version="1.0" encoding="UTF-8"?>
<!DOCTYPE svg PUBLIC "-//W3C//DTD SVG 1.1//EN" "http://www.w3.org/Graphics/SVG/1.1/DTD/svg11.dtd">
<!-- Creator: CorelDRAW 2021 (64-Bit) -->
<svg xmlns="http://www.w3.org/2000/svg" xml:space="preserve" width="4.64694in" height="4.64694in" version="1.1" style="shape-rendering:geometricPrecision; text-rendering:geometricPrecision; image-rendering:optimizeQuality; fill-rule:evenodd; clip-rule:evenodd"
viewBox="0 0 310.5 310.5"
 xmlns:xlink="http://www.w3.org/1999/xlink"
 xmlns:xodm="http://www.corel.com/coreldraw/odm/2003">
 <defs>
  <style type="text/css">
   <![CDATA[
    .str0 {stroke:black;stroke-width:0.46;stroke-linecap:round;stroke-linejoin:round;stroke-miterlimit:22.9256}
    .fil0 {fill:blue}
    .fil1 {fill:lime}
    .fil2 {fill:red}
    .fil3 {fill:white}
    .fil4 {fill:black}
    .fil5 {fill:none}
   ]]>
  </style>
 </defs>
 <g id="Layer_x0020_1">
  <metadata id="CorelCorpID_0Corel-Layer"/>
  <rect class="fil0" x="0.23" y="0.23" width="155.02" height="155.02"/>
  <rect class="fil1" x="155.25" y="0.23" width="155.02" height="155.02"/>
  <rect class="fil2" x="0.23" y="155.25" width="155.02" height="155.02"/>
  <rect class="fil3" x="155.25" y="155.25" width="155.02" height="155.02"/>
  <path class="fil4" d="M48.68 9.93c5.35,0 9.69,4.34 9.69,9.69l0 38.75c0,5.35 4.34,9.68 9.69,9.68l19.37 0c5.35,0 9.69,-4.34 9.69,-9.68l0 -38.75c0,-5.35 4.34,-9.69 9.69,-9.69 5.35,0 9.69,4.34 9.69,9.69l0 116.25c0,5.35 -4.34,9.69 -9.69,9.69 -5.35,0 -9.69,-4.34 -9.69,-9.69l0 -38.75c0,-5.35 -4.34,-9.68 -9.69,-9.68l-19.37 0c-5.35,0 -9.69,4.34 -9.69,9.68l0 38.75c0,5.35 -4.34,9.69 -9.69,9.69 -5.35,0 -9.69,-4.34 -9.69,-9.69l0 -116.25c0,-5.35 4.34,-9.69 9.69,-9.69z"/>
  <path class="fil4" d="M223.07 135.86c0,5.35 4.34,9.69 9.69,9.69 5.35,0 9.69,-4.34 9.69,-9.69 0,-32.29 0,-64.58 0,-96.88 0,-5.35 4.34,-9.68 9.69,-9.68l9.69 0c5.35,0 9.69,-4.34 9.69,-9.69 0,-5.35 -4.34,-9.69 -9.69,-9.69 -19.37,0 -38.75,0 -58.12,0 -5.35,0 -9.69,4.34 -9.69,9.69 0,5.35 4.34,9.69 9.69,9.69l9.69 0c5.35,0 9.69,4.34 9.69,9.68l0 96.88z"/>
  <path class="fil4" d="M57.43 170.47c-3.48,-7.12 -13.21,-7.32 -17.08,-0.78 -0.95,1.6 -1.37,3.29 -1.35,5.13l0 116.06c0,5.35 4.34,9.69 9.69,9.69 5.35,0 9.69,-4.34 9.69,-9.69l0 -75.21 10.62 21.25c3.6,7.37 13.91,7.37 17.5,0l10.62 -21.25 0 75.21c0,5.35 4.34,9.69 9.69,9.69 5.35,0 9.69,-4.34 9.69,-9.69l0 -116.06c0.02,-1.84 -0.41,-3.53 -1.35,-5.13 -3.88,-6.54 -13.61,-6.35 -17.08,0.78l-20.31 40.63 -20.31 -40.63z"/>
  <path class="fil4" d="M194.01 290.88c0,5.35 4.34,9.68 9.69,9.68l58.12 0c5.35,0 9.69,-4.34 9.69,-9.69 0,-5.35 -4.34,-9.69 -9.69,-9.69 -12.92,0 -25.83,0 -38.75,0 -5.35,0 -9.69,-4.34 -9.69,-9.68l0 -96.88c0,-5.35 -4.34,-9.69 -9.69,-9.69 -5.35,0 -9.69,4.34 -9.69,9.69l0 116.25z"/>
  <rect class="fil5 str0" x="0.23" y="0.23" width="310.03" height="310.03"/>
 </g>
</svg>
