<?xml version="1.0" encoding="UTF-8"?>
<!DOCTYPE svg PUBLIC "-//W3C//DTD SVG 1.1//EN" "http://www.w3.org/Graphics/SVG/1.1/DTD/svg11.dtd">
<!-- Creator: CorelDRAW 2021 (64-Bit) -->
<svg xmlns="http://www.w3.org/2000/svg" xml:space="preserve" width="7.42296in" height="3.6245in" version="1.1" style="shape-rendering:geometricPrecision; text-rendering:geometricPrecision; image-rendering:optimizeQuality; fill-rule:evenodd; clip-rule:evenodd"
viewBox="0 0 1992.19 972.75"
 xmlns:xlink="http://www.w3.org/1999/xlink"
 xmlns:xodm="http://www.corel.com/coreldraw/odm/2003">
 <defs>
  <style type="text/css">
   <![CDATA[
    .fil0 {fill:white}
   ]]>
  </style>
 </defs>
 <g id="Layer_x0020_1">
  <metadata id="CorelCorpID_0Corel-Layer"/>
  <path class="fil0" d="M817.11 0l-817.11 0 0 972.75 817.11 0 0 -972.75zm-758.75 38.91c10.74,0 19.45,8.71 19.45,19.46l0 77.83c0,10.74 8.71,19.45 19.46,19.45l38.91 0c10.74,0 19.46,-8.71 19.46,-19.45l0 -77.83c0,-10.74 8.71,-19.46 19.45,-19.46 10.74,0 19.46,8.71 19.46,19.46l0 233.46c0,10.74 -8.71,19.45 -19.46,19.45 -10.74,0 -19.45,-8.71 -19.45,-19.45l0 -77.83c0,-10.74 -8.71,-19.45 -19.46,-19.45l-38.91 0c-10.74,0 -19.46,8.71 -19.46,19.45l0 77.83c0,10.74 -8.71,19.45 -19.45,19.45 -10.74,0 -19.46,-8.71 -19.46,-19.45l0 -233.46c0,-10.74 8.71,-19.46 19.46,-19.46zm406.67 11.09c-6.98,-14.3 -26.53,-14.7 -34.31,-1.56 -1.9,3.21 -2.75,6.6 -2.72,10.3l0 233.08c0,10.74 8.71,19.45 19.45,19.45 10.74,0 19.46,-8.71 19.46,-19.45l0 -151.05 21.33 42.67c7.23,14.81 27.93,14.81 35.15,0l21.33 -42.67 0 151.05c0,10.74 8.71,19.45 19.45,19.45 10.74,0 19.45,-8.71 19.45,-19.45l0 -233.08c0.03,-3.7 -0.81,-7.08 -2.72,-10.3 -7.78,-13.14 -27.33,-12.74 -34.31,1.56l-40.79 81.59 -40.79 -81.59zm-173.21 241.83c0,10.74 8.71,19.45 19.45,19.45 10.74,0 19.46,-8.71 19.46,-19.45 0,-64.85 0,-129.7 0,-194.56 0,-10.74 8.71,-19.45 19.45,-19.45l19.46 0c10.74,0 19.45,-8.71 19.45,-19.45 0,-10.74 -8.71,-19.46 -19.45,-19.46 -38.91,0 -77.82,0 -116.73,0 -10.74,0 -19.45,8.71 -19.45,19.46 0,10.74 8.71,19.45 19.45,19.45l19.45 0c10.74,0 19.46,8.71 19.46,19.45l0 194.56zm330.73 -136.18l0 136.19c0,10.74 8.71,19.45 19.46,19.45l116.73 0c10.74,0 19.46,-8.71 19.46,-19.45 0,-10.74 -8.71,-19.46 -19.46,-19.46 -25.94,0 -51.88,0 -77.82,0 -10.74,0 -19.46,-8.71 -19.46,-19.45l0 -194.55c0,-10.74 -8.71,-19.46 -19.45,-19.46 -10.74,0 -19.46,8.71 -19.46,19.46l0 97.27zm-428.01 544.73l0 155.6c0,42.97 -34.84,77.8 -77.82,77.8 -42.99,0 -77.82,-34.87 -77.82,-77.8 0,-10.74 8.71,-19.45 19.46,-19.45 10.74,0 19.45,8.71 19.45,19.45 0,21.48 17.42,38.9 38.91,38.9 21.49,0 38.91,-17.42 38.91,-38.9l0 -136.15c0,-10.74 -8.71,-19.45 -19.46,-19.45l-77.82 0c-10.74,0 -19.46,-8.71 -19.46,-19.45 0,-10.74 8.71,-19.45 19.46,-19.45l116.73 0c10.74,0 19.46,8.71 19.46,19.45l0 19.45zm116.72 77.83c42.98,0 77.82,34.84 77.82,77.82 0,42.98 -34.84,77.82 -77.82,77.82 -42.99,0 -77.82,-34.88 -77.82,-77.82 0,-10.74 8.71,-19.45 19.45,-19.45 10.74,0 19.45,8.71 19.45,19.45 0,21.49 17.42,38.91 38.91,38.91 21.49,0 38.91,-17.42 38.91,-38.91 0,-21.49 -17.42,-38.91 -38.91,-38.91 -42.98,0 -77.82,-34.84 -77.82,-77.82 0,-42.98 34.84,-77.82 77.82,-77.82 42.99,0 77.82,34.88 77.82,77.82 0,10.74 -8.71,19.45 -19.45,19.45 -10.74,0 -19.46,-8.71 -19.46,-19.45 0,-21.49 -17.42,-38.91 -38.91,-38.91 -21.49,0 -38.91,17.42 -38.91,38.91 0,21.49 17.42,38.91 38.91,38.91zm-194.54 -428.01c42.98,0 77.82,34.84 77.82,77.82 0,10.71 -8.68,19.45 -19.46,19.45 -10.74,0 -19.45,-8.71 -19.45,-19.45 0,-21.49 -17.42,-38.91 -38.91,-38.91 -21.49,0 -38.91,17.42 -38.91,38.91l0 116.73c0,21.49 17.42,38.91 38.91,38.91 21.49,0 38.91,-17.42 38.91,-38.91 0,-10.74 8.71,-19.45 19.45,-19.45 10.77,0 19.46,8.74 19.46,19.45 0,42.98 -34.84,77.82 -77.82,77.82 -42.98,0 -77.82,-34.84 -77.82,-77.82l0 -116.73c0,-42.98 34.84,-77.82 77.82,-77.82zm194.55 116.73c42.98,0 77.82,34.84 77.82,77.82 0,42.98 -34.84,77.82 -77.82,77.82 -42.99,0 -77.82,-34.88 -77.82,-77.82 0,-10.74 8.71,-19.45 19.45,-19.45 10.74,0 19.45,8.71 19.45,19.45 0,21.49 17.42,38.91 38.91,38.91 21.49,0 38.91,-17.42 38.91,-38.91 0,-21.49 -17.42,-38.91 -38.91,-38.91 -42.98,0 -77.82,-34.84 -77.82,-77.82 0,-42.98 34.84,-77.82 77.82,-77.82 42.99,0 77.82,34.88 77.82,77.82 0,10.74 -8.71,19.45 -19.45,19.45 -10.74,0 -19.46,-8.71 -19.46,-19.45 0,-21.49 -17.42,-38.91 -38.91,-38.91 -21.49,0 -38.91,17.42 -38.91,38.91 0,21.49 17.42,38.91 38.91,38.91zm194.54 0c42.98,0 77.82,34.84 77.82,77.82 0,42.98 -34.84,77.82 -77.82,77.82 -42.99,0 -77.82,-34.88 -77.82,-77.82 0,-10.74 8.71,-19.45 19.45,-19.45 10.74,0 19.46,8.71 19.46,19.45 0,21.49 17.42,38.91 38.91,38.91 21.49,0 38.91,-17.42 38.91,-38.91 0,-21.49 -17.42,-38.91 -38.91,-38.91 -42.98,0 -77.82,-34.84 -77.82,-77.82 0,-42.98 34.84,-77.82 77.82,-77.82 42.99,0 77.82,34.88 77.82,77.82 0,10.74 -8.71,19.45 -19.45,19.45 -10.74,0 -19.46,-8.71 -19.46,-19.45 0,-21.49 -17.42,-38.91 -38.91,-38.91 -21.49,0 -38.91,17.42 -38.91,38.91 0,21.49 17.42,38.91 38.91,38.91z"/>
  <g id="_1622539910656">
   <path class="fil0" d="M1276.24 244.02l-13.07 0 13.07 -52.27 13.07 52.27 -13.07 0zm-27.98 59.66c18.66,0 37.31,0 55.97,0l32.57 130.26c4.88,19.57 27.36,28.65 44.44,18.26 9.22,-5.61 14.79,-15.85 14.31,-26.79 -0.1,-2.36 -0.47,-4.64 -1.09,-6.82l-89.09 -356.34c-2.51,-11.32 -11.45,-20.21 -22.79,-22.66 -4.14,-0.9 -8.52,-0.9 -12.66,0 -11.34,2.45 -20.28,11.34 -22.79,22.66l-89.09 356.34c-0.97,3.64 -1.32,7.04 -1,10.72 1.6,18.4 19.4,30.89 37.19,26.28 10.49,-2.72 18.81,-10.98 21.47,-21.65l32.57 -130.26z"/>
   <path class="fil0" d="M977.93 217.9c65.9,0 119.33,53.42 119.33,119.32 0,65.9 -53.42,119.33 -119.33,119.33 -65.92,0 -119.32,-53.48 -119.32,-119.33 0,-16.47 13.36,-29.83 29.83,-29.83 16.48,0 29.83,13.36 29.83,29.83 0,32.95 26.71,59.66 59.66,59.66 32.95,0 59.66,-26.71 59.66,-59.66 0,-32.95 -26.71,-59.66 -59.66,-59.66 -65.9,0 -119.32,-53.42 -119.32,-119.32 0,-65.9 53.42,-119.33 119.32,-119.33 65.92,0 119.33,53.48 119.33,119.33 0,16.47 -13.36,29.83 -29.83,29.83 -16.47,0 -29.83,-13.36 -29.83,-29.83 0,-32.95 -26.71,-59.66 -59.66,-59.66 -32.95,0 -59.66,26.71 -59.66,59.66 0,32.95 26.71,59.66 59.66,59.66z"/>
   <path class="fil0" d="M1512 55.92l122.22 244.43 0 -231.61 0 0c0.01,-10.93 6.05,-21.45 16.49,-26.68 14.73,-7.37 32.65,-1.39 40.01,13.34 2.14,4.29 3.16,8.85 3.15,13.34l0 0 0 357.97c0,16.48 -13.36,29.83 -29.83,29.83 -11.9,0 -22.17,-6.97 -26.96,-17.05l-0 0 -122.2 -244.39 0 231.61 -0 0c-0.01,10.93 -6.05,21.45 -16.49,26.68 -14.73,7.37 -32.65,1.39 -40.01,-13.34 -2.14,-4.29 -3.16,-8.85 -3.15,-13.34l-0 0 0 -357.97c0,-16.48 13.36,-29.83 29.83,-29.83 11.88,0 22.15,6.95 26.94,17.01z"/>
   <path class="fil0" d="M1783.37 38.91l89.49 0c65.9,0 119.33,53.42 119.33,119.33l0 178.99c0,65.9 -53.42,119.33 -119.33,119.33 -29.83,0 -59.66,0 -89.49,0 -16.47,0 -29.83,-13.36 -29.83,-29.83l0 -357.97c0,-16.48 13.36,-29.83 29.83,-29.83zm149.16 238.65l0 -119.32c0,-32.95 -26.71,-59.66 -59.66,-59.66l-29.83 0c-16.47,0 -29.83,13.36 -29.83,29.83l0 238.65c0,16.47 13.36,29.83 29.83,29.83l29.83 0c32.95,0 59.66,-26.71 59.66,-59.66l0 -59.66z"/>
   <g>
    <path class="fil0" d="M888.43 516.2l59.66 0c65.9,0 119.32,53.42 119.32,119.33 0,29.23 -10.51,55.99 -27.96,76.74 34.63,20.89 57.79,58.86 57.79,102.25 0,65.9 -53.42,119.33 -119.33,119.33l-89.49 0c-16.47,0 -29.83,-13.36 -29.83,-29.83l0 -357.97c0,-16.48 13.36,-29.83 29.83,-29.83zm29.83 268.48c0,-16.48 13.36,-29.83 29.83,-29.83l29.83 0c32.95,0 59.66,26.71 59.66,59.66 0,32.95 -26.71,59.66 -59.66,59.66l-29.83 0c-16.48,0 -29.83,-13.36 -29.83,-29.83l0 -59.66zm0 -119.33c0,16.48 13.36,29.83 29.83,29.83 32.95,0 59.66,-26.71 59.66,-59.66 0,-32.95 -26.71,-59.66 -59.66,-59.66 -16.48,0 -29.83,13.36 -29.83,29.83l0 59.66z"/>
    <path class="fil0" d="M1216.58 635.53l0 178.99c0,32.95 26.71,59.66 59.66,59.66 32.95,0 59.66,-26.71 59.66,-59.66l0 -178.99c0,-32.95 -26.71,-59.66 -59.66,-59.66 -32.95,0 -59.66,26.71 -59.66,59.66zm-59.66 178.99l0 -178.99c0,-65.9 53.42,-119.33 119.32,-119.33 65.9,0 119.33,53.42 119.33,119.33l0 178.99c0,65.9 -53.42,119.33 -119.33,119.33 -65.9,0 -119.32,-53.42 -119.32,-119.33z"/>
    <path class="fil0" d="M1565.1 639.42l9.45 18.9 9.45 -18.9 26.68 -53.36 26.42 -52.84c4.79,-10.06 15.06,-17.02 26.94,-17.02 16.47,0 29.83,13.36 29.83,29.83 0,4.97 -1.22,9.66 -3.37,13.79l-26.46 52.91 -26.68 53.36 -15.75 31.49 -10.93 21.87 -2.78 5.56 2.78 5.56 26.68 53.36 23.31 46.62c0.16,0.31 0.32,0.62 0.47,0.94l2.91 5.81 26.46 52.92c2.15,4.12 3.37,8.81 3.37,13.79 0,16.48 -13.36,29.83 -29.83,29.83 -11.89,0 -22.15,-6.95 -26.94,-17.02l-26.42 -52.84 -2.92 -5.84c-0.17,-0.33 -0.33,-0.65 -0.49,-0.99l-23.27 -46.54 -9.45 -18.9 -9.45 18.9 -23.27 46.54c-0.16,0.33 -0.32,0.66 -0.49,0.99l-2.92 5.84 -26.42 52.84c-4.79,10.06 -15.06,17.02 -26.94,17.02 -16.48,0 -29.83,-13.36 -29.83,-29.83 0,-4.97 1.22,-9.66 3.37,-13.79l26.46 -52.92 2.91 -5.81c0.15,-0.31 0.31,-0.63 0.47,-0.94l23.31 -46.62 26.68 -53.36 2.78 -5.56 -2.78 -5.56 -10.93 -21.87 -15.75 -31.49 -26.68 -53.36 -26.46 -52.91c-2.15,-4.13 -3.37,-8.82 -3.37,-13.79 0,-16.48 13.36,-29.83 29.83,-29.83 11.89,0 22.15,6.95 26.94,17.02l26.42 52.84 26.68 53.36z"/>
   </g>
  </g>
 </g>
</svg>
