<?xml version="1.0" encoding="UTF-8"?>
<!DOCTYPE svg PUBLIC "-//W3C//DTD SVG 1.1//EN" "http://www.w3.org/Graphics/SVG/1.1/DTD/svg11.dtd">
<!-- Creator: CorelDRAW 2021 (64-Bit) -->
<svg xmlns="http://www.w3.org/2000/svg" xml:space="preserve" width="51.1999in" height="25in" version="1.1" style="shape-rendering:geometricPrecision; text-rendering:geometricPrecision; image-rendering:optimizeQuality; fill-rule:evenodd; clip-rule:evenodd"
viewBox="0 0 2794.68 1364.59"
 xmlns:xlink="http://www.w3.org/1999/xlink"
 xmlns:xodm="http://www.corel.com/coreldraw/odm/2003">
 <defs>
  <style type="text/css">
   <![CDATA[
    .fil0 {fill:black}
    .fil1 {fill:white}
   ]]>
  </style>
 </defs>
 <g id="Layer_x0020_1">
  <metadata id="CorelCorpID_0Corel-Layer"/>
  <path class="fil0" d="M1146.25 0l-1146.25 0 0 1364.59 1146.25 0 0 -1364.59zm-1064.38 54.58c15.07,0 27.29,12.22 27.29,27.29l0 109.18c0,15.07 12.22,27.28 27.29,27.28l54.58 0c15.07,0 27.29,-12.22 27.29,-27.28l0 -109.18c0,-15.07 12.22,-27.29 27.29,-27.29 15.07,0 27.29,12.22 27.29,27.29l0 327.5c0,15.07 -12.22,27.29 -27.29,27.29 -15.07,0 -27.29,-12.22 -27.29,-27.29l0 -109.18c0,-15.07 -12.22,-27.28 -27.29,-27.28l-54.58 0c-15.07,0 -27.29,12.22 -27.29,27.28l0 109.18c0,15.07 -12.22,27.29 -27.29,27.29 -15.07,0 -27.29,-12.22 -27.29,-27.29l0 -327.5c0,-15.07 12.22,-27.29 27.29,-27.29zm570.48 15.55c-9.79,-20.06 -37.21,-20.63 -48.13,-2.19 -2.67,4.51 -3.86,9.26 -3.81,14.45l0 326.97c0,15.07 12.22,27.29 27.29,27.29 15.07,0 27.29,-12.22 27.29,-27.29l0 -211.89 29.93 59.85c10.14,20.77 39.18,20.78 49.31,0l29.93 -59.85 0 211.89c0,15.07 12.22,27.29 27.29,27.29 15.07,0 27.29,-12.22 27.29,-27.29l0 -326.97c0.05,-5.19 -1.14,-9.94 -3.81,-14.45 -10.92,-18.44 -38.33,-17.88 -48.13,2.19l-57.23 114.46 -57.23 -114.46zm-242.98 339.24c0,15.07 12.22,27.29 27.29,27.29 15.07,0 27.29,-12.22 27.29,-27.29 0,-90.98 0,-181.95 0,-272.93 0,-15.07 12.22,-27.28 27.29,-27.28l27.29 0c15.07,0 27.29,-12.22 27.29,-27.29 0,-15.07 -12.22,-27.29 -27.29,-27.29 -54.58,0 -109.17,0 -163.75,0 -15.07,0 -27.29,12.22 -27.29,27.29 0,15.07 12.22,27.29 27.29,27.29l27.29 0c15.07,0 27.29,12.22 27.29,27.28l0 272.93zm463.96 -191.04l0 191.05c0,15.07 12.22,27.28 27.29,27.28l163.75 0c15.07,0 27.29,-12.22 27.29,-27.29 0,-15.07 -12.22,-27.29 -27.29,-27.29 -36.39,0 -72.78,0 -109.17,0 -15.07,0 -27.29,-12.22 -27.29,-27.28l0 -272.93c0,-15.07 -12.22,-27.29 -27.29,-27.29 -15.07,0 -27.29,12.22 -27.29,27.29l0 136.46zm-600.42 764.15l0 218.27c0,60.27 -48.88,109.14 -109.17,109.14 -60.31,0 -109.17,-48.91 -109.17,-109.14 0,-15.07 12.22,-27.28 27.29,-27.28 15.07,0 27.29,12.22 27.29,27.28 0,30.14 24.44,54.57 54.58,54.57 30.15,0 54.58,-24.43 54.58,-54.57l0 -190.99c0,-15.07 -12.22,-27.28 -27.29,-27.28l-109.17 0c-15.07,0 -27.29,-12.22 -27.29,-27.28 0,-15.07 12.22,-27.28 27.29,-27.28l163.75 0c15.07,0 27.29,12.22 27.29,27.28l0 27.28zm163.74 109.18c60.29,0 109.17,48.88 109.17,109.17 0,60.29 -48.88,109.17 -109.17,109.17 -60.31,0 -109.17,-48.93 -109.17,-109.17 0,-15.07 12.22,-27.29 27.29,-27.29 15.07,0 27.29,12.22 27.29,27.29 0,30.15 24.44,54.58 54.58,54.58 30.15,0 54.58,-24.44 54.58,-54.58 0,-30.15 -24.44,-54.58 -54.58,-54.58 -60.29,0 -109.17,-48.88 -109.17,-109.17 0,-60.29 48.88,-109.17 109.17,-109.17 60.31,0 109.17,48.93 109.17,109.17 0,15.07 -12.22,27.29 -27.29,27.29 -15.07,0 -27.29,-12.22 -27.29,-27.29 0,-30.15 -24.44,-54.58 -54.58,-54.58 -30.15,0 -54.58,24.44 -54.58,54.58 0,30.15 24.44,54.58 54.58,54.58zm-272.91 -600.42c60.29,0 109.17,48.88 109.17,109.17 0,15.03 -12.18,27.29 -27.29,27.29 -15.07,0 -27.29,-12.22 -27.29,-27.29 0,-30.15 -24.44,-54.58 -54.58,-54.58 -30.15,0 -54.58,24.44 -54.58,54.58l0 163.75c0,30.15 24.44,54.58 54.58,54.58 30.15,0 54.58,-24.44 54.58,-54.58 0,-15.07 12.22,-27.29 27.29,-27.29 15.11,0 27.29,12.26 27.29,27.29 0,60.29 -48.88,109.17 -109.17,109.17 -60.29,0 -109.17,-48.88 -109.17,-109.17l0 -163.75c0,-60.29 48.88,-109.17 109.17,-109.17zm272.92 163.75c60.29,0 109.17,48.88 109.17,109.17 0,60.29 -48.88,109.17 -109.17,109.17 -60.31,0 -109.17,-48.93 -109.17,-109.17 0,-15.07 12.22,-27.29 27.29,-27.29 15.07,0 27.29,12.22 27.29,27.29 0,30.15 24.44,54.58 54.58,54.58 30.15,0 54.58,-24.44 54.58,-54.58 0,-30.15 -24.44,-54.58 -54.58,-54.58 -60.29,0 -109.17,-48.88 -109.17,-109.17 0,-60.29 48.88,-109.17 109.17,-109.17 60.31,0 109.17,48.93 109.17,109.17 0,15.07 -12.22,27.29 -27.29,27.29 -15.07,0 -27.29,-12.22 -27.29,-27.29 0,-30.15 -24.44,-54.58 -54.58,-54.58 -30.15,0 -54.58,24.44 -54.58,54.58 0,30.15 24.44,54.58 54.58,54.58zm272.91 0c60.29,0 109.17,48.88 109.17,109.17 0,60.29 -48.88,109.17 -109.17,109.17 -60.31,0 -109.17,-48.93 -109.17,-109.17 0,-15.07 12.22,-27.29 27.29,-27.29 15.07,0 27.29,12.22 27.29,27.29 0,30.15 24.44,54.58 54.58,54.58 30.15,0 54.58,-24.44 54.58,-54.58 0,-30.15 -24.44,-54.58 -54.58,-54.58 -60.29,0 -109.17,-48.88 -109.17,-109.17 0,-60.29 48.88,-109.17 109.17,-109.17 60.31,0 109.17,48.93 109.17,109.17 0,15.07 -12.22,27.29 -27.29,27.29 -15.07,0 -27.29,-12.22 -27.29,-27.29 0,-30.15 -24.44,-54.58 -54.58,-54.58 -30.15,0 -54.58,24.44 -54.58,54.58 0,30.15 24.44,54.58 54.58,54.58z"/>
  <g id="_2081940110784">
   <path class="fil0" d="M1790.33 342.31l-18.33 0 18.33 -73.33 18.33 73.33 -18.34 0zm-39.25 83.69c26.17,0 52.34,0 78.51,0l45.68 182.73c6.85,27.45 38.38,40.19 62.34,25.62 12.94,-7.87 20.75,-22.23 20.08,-37.58 -0.14,-3.3 -0.66,-6.51 -1.53,-9.57l-124.97 -499.88c-3.52,-15.88 -16.07,-28.36 -31.98,-31.79 -5.81,-1.26 -11.95,-1.26 -17.76,0 -15.91,3.44 -28.45,15.92 -31.98,31.79l-124.97 499.88c-1.36,5.11 -1.86,9.88 -1.41,15.04 2.24,25.82 27.22,43.33 52.17,36.87 14.72,-3.81 26.38,-15.4 30.12,-30.37l45.68 -182.73z"/>
   <path class="fil0" d="M1371.85 305.67c92.45,0 167.39,74.94 167.39,167.39 0,92.45 -74.94,167.39 -167.39,167.39 -92.48,0 -167.39,-75.02 -167.39,-167.39 0,-23.11 18.74,-41.85 41.85,-41.85 23.11,0 41.85,18.74 41.85,41.85 0,46.22 37.47,83.7 83.7,83.7 46.22,0 83.7,-37.47 83.7,-83.7 0,-46.22 -37.47,-83.7 -83.7,-83.7 -92.45,0 -167.39,-74.94 -167.39,-167.39 0,-92.45 74.94,-167.39 167.39,-167.39 92.48,0 167.39,75.02 167.39,167.39 0,23.11 -18.74,41.85 -41.85,41.85 -23.11,0 -41.85,-18.74 -41.85,-41.85 0,-46.22 -37.47,-83.7 -83.7,-83.7 -46.22,0 -83.7,37.47 -83.7,83.7 0,46.22 37.47,83.7 83.7,83.7z"/>
   <path class="fil0" d="M2121.06 78.44l171.45 342.89 0 -324.9 0 0c0.01,-15.34 8.48,-30.1 23.13,-37.42 20.67,-10.33 45.8,-1.96 56.13,18.71 3.01,6.02 4.43,12.41 4.42,18.71l0 0 -0 502.17c0,23.11 -18.74,41.85 -41.85,41.85 -16.69,0 -31.1,-9.78 -37.82,-23.92l-0 0 -171.42 -342.84 0 324.9 -0 0c-0.01,15.34 -8.48,30.1 -23.13,37.42 -20.67,10.33 -45.8,1.96 -56.13,-18.71 -3.01,-6.02 -4.43,-12.41 -4.42,-18.71l-0 0 0 -502.17c0,-23.11 18.74,-41.85 41.85,-41.85 16.67,0 31.07,9.75 37.79,23.86z"/>
   <path class="fil0" d="M2501.74 54.58l125.54 0c92.45,0 167.39,74.94 167.39,167.39l0 251.09c0,92.45 -74.94,167.39 -167.39,167.39 -41.85,0 -83.7,0 -125.54,0 -23.11,0 -41.85,-18.74 -41.85,-41.85l0 -502.17c0,-23.11 18.74,-41.85 41.85,-41.85zm209.24 334.78l0 -167.39c0,-46.22 -37.47,-83.7 -83.7,-83.7l-41.85 0c-23.11,0 -41.85,18.74 -41.85,41.85l0 334.78c0,23.11 18.74,41.85 41.85,41.85l41.85 0c46.22,0 83.7,-37.47 83.7,-83.7l0 -83.7z"/>
   <g>
    <path class="fil0" d="M1246.31 724.14l83.7 0c92.45,0 167.39,74.94 167.39,167.39 0,41 -14.75,78.55 -39.22,107.65 48.58,29.3 81.06,82.57 81.06,143.44 0,92.45 -74.94,167.39 -167.39,167.39l-125.54 0c-23.11,0 -41.85,-18.74 -41.85,-41.85l0 -502.17c0,-23.11 18.74,-41.85 41.85,-41.85zm41.85 376.63c0,-23.11 18.74,-41.85 41.85,-41.85l41.85 0c46.22,0 83.7,37.47 83.7,83.7 0,46.22 -37.47,83.7 -83.7,83.7l-41.85 0c-23.11,0 -41.85,-18.74 -41.85,-41.85l0 -83.7zm0 -167.39c0,23.11 18.74,41.85 41.85,41.85 46.22,0 83.7,-37.47 83.7,-83.7 0,-46.22 -37.47,-83.7 -83.7,-83.7 -23.11,0 -41.85,18.74 -41.85,41.85l0 83.7z"/>
    <path class="fil0" d="M1706.63 891.53l0 251.09c0,46.22 37.47,83.7 83.7,83.7 46.22,0 83.7,-37.47 83.7,-83.7l0 -251.09c0,-46.22 -37.47,-83.7 -83.7,-83.7 -46.22,0 -83.7,37.47 -83.7,83.7zm-83.7 251.09l0 -251.09c0,-92.45 74.94,-167.39 167.39,-167.39 92.45,0 167.39,74.94 167.39,167.39l0 251.09c0,92.45 -74.94,167.39 -167.39,167.39 -92.45,0 -167.39,-74.94 -167.39,-167.39z"/>
    <path class="fil0" d="M2195.55 896.99l13.25 26.51 13.25 -26.51 37.43 -74.86 37.06 -74.12c6.73,-14.11 21.12,-23.87 37.8,-23.87 23.11,0 41.85,18.74 41.85,41.85 0,6.98 -1.71,13.56 -4.73,19.34l-37.11 74.23 -37.43 74.86 -22.09 44.18 -15.34 30.68 -3.9 7.79 3.9 7.79 37.43 74.86 32.7 65.39c0.23,0.43 0.44,0.87 0.66,1.31l4.08 8.15 37.11 74.23c3.02,5.79 4.73,12.36 4.73,19.34 0,23.11 -18.74,41.85 -41.85,41.85 -16.68,0 -31.07,-9.76 -37.8,-23.87l-37.06 -74.12 -4.1 -8.19c-0.24,-0.46 -0.47,-0.92 -0.69,-1.38l-32.64 -65.29 -13.25 -26.51 -13.25 26.51 -32.64 65.29c-0.22,0.47 -0.45,0.93 -0.69,1.38l-4.1 8.19 -37.06 74.12c-6.73,14.11 -21.12,23.87 -37.8,23.87 -23.11,0 -41.85,-18.74 -41.85,-41.85 0,-6.98 1.71,-13.56 4.73,-19.34l37.11 -74.23 4.08 -8.15c0.21,-0.44 0.43,-0.88 0.66,-1.31l32.7 -65.39 37.43 -74.86 3.9 -7.79 -3.9 -7.79 -15.34 -30.68 -22.09 -44.18 -37.43 -74.86 -37.11 -74.23c-3.02,-5.79 -4.73,-12.36 -4.73,-19.34 0,-23.11 18.74,-41.85 41.85,-41.85 16.68,0 31.07,9.76 37.8,23.87l37.06 74.12 37.43 74.86z"/>
   </g>
  </g>
  <g id="_2081940110160">
   <g>
    <path class="fil1" d="M81.88 54.58c15.07,0 27.29,12.22 27.29,27.29l0 109.18c0,15.07 12.22,27.28 27.29,27.28l54.58 0c15.07,0 27.29,-12.22 27.29,-27.28l0 -109.18c0,-15.07 12.22,-27.29 27.29,-27.29 15.07,0 27.29,12.22 27.29,27.29l0 327.5c0,15.07 -12.22,27.29 -27.29,27.29 -15.07,0 -27.29,-12.22 -27.29,-27.29l0 -109.18c0,-15.07 -12.22,-27.28 -27.29,-27.28l-54.58 0c-15.07,0 -27.29,12.22 -27.29,27.28l0 109.18c0,15.07 -12.22,27.29 -27.29,27.29 -15.07,0 -27.29,-12.22 -27.29,-27.29l0 -327.5c0,-15.07 12.22,-27.29 27.29,-27.29z"/>
    <path class="fil1" d="M652.36 70.13c-9.79,-20.06 -37.21,-20.63 -48.13,-2.19 -2.67,4.51 -3.86,9.26 -3.81,14.45l0 326.97c0,15.07 12.22,27.29 27.29,27.29 15.07,0 27.29,-12.22 27.29,-27.29l0 -211.89 29.93 59.85c10.14,20.77 39.18,20.78 49.31,0l29.93 -59.85 0 211.89c0,15.07 12.22,27.29 27.29,27.29 15.07,0 27.29,-12.22 27.29,-27.29l0 -326.97c0.05,-5.19 -1.14,-9.94 -3.81,-14.45 -10.92,-18.44 -38.33,-17.88 -48.13,2.19l-57.23 114.46 -57.23 -114.46z"/>
    <path class="fil1" d="M409.38 409.38c0,15.07 12.22,27.29 27.29,27.29 15.07,0 27.29,-12.22 27.29,-27.29 0,-90.98 0,-181.95 0,-272.93 0,-15.07 12.22,-27.28 27.29,-27.28l27.29 0c15.07,0 27.29,-12.22 27.29,-27.29 0,-15.07 -12.22,-27.29 -27.29,-27.29 -54.58,0 -109.17,0 -163.75,0 -15.07,0 -27.29,12.22 -27.29,27.29 0,15.07 12.22,27.29 27.29,27.29l27.29 0c15.07,0 27.29,12.22 27.29,27.28l0 272.93z"/>
    <path class="fil1" d="M873.34 218.33l0 191.05c0,15.07 12.22,27.28 27.29,27.28l163.75 0c15.07,0 27.29,-12.22 27.29,-27.29 0,-15.07 -12.22,-27.29 -27.29,-27.29 -36.39,0 -72.78,0 -109.17,0 -15.07,0 -27.29,-12.22 -27.29,-27.28l0 -272.93c0,-15.07 -12.22,-27.29 -27.29,-27.29 -15.07,0 -27.29,12.22 -27.29,27.29l0 136.46z"/>
   </g>
   <g>
    <path class="fil1" d="M272.92 982.49l0 54.57 0 54.57 0 54.57 0 54.57c0,60.27 -48.88,109.14 -109.17,109.14 -60.05,0 -108.78,-48.48 -109.16,-108.43 -0.01,-0.24 -0.01,-0.47 -0.01,-0.71 0,-15.07 12.22,-27.28 27.29,-27.28 15.07,0 27.29,12.22 27.29,27.28 0,30.14 24.44,54.57 54.58,54.57 30.15,0 54.58,-24.43 54.58,-54.57l0 -54.57 0 -54.57 0 -54.57 0 -27.28c0,-15.07 -12.22,-27.28 -27.29,-27.28l-27.29 0 -54.58 0 -27.29 0c-15.07,0 -27.29,-12.22 -27.29,-27.28 0,-15.07 12.22,-27.28 27.29,-27.28l27.29 0 54.58 0 54.58 0 27.29 0c15.07,0 27.29,12.22 27.29,27.28l0 27.28z"/>
    <path class="fil1" d="M436.66 1091.67c60.29,0 109.17,48.88 109.17,109.17 0,60.29 -48.88,109.17 -109.17,109.17 -60.05,0 -108.78,-48.49 -109.16,-108.46 -0.01,-0.24 -0.01,-0.47 -0.01,-0.71 0,-15.07 12.22,-27.29 27.29,-27.29 15.07,0 27.29,12.22 27.29,27.29 0,30.15 24.44,54.58 54.58,54.58 30.15,0 54.58,-24.44 54.58,-54.58 0,-30.15 -24.44,-54.58 -54.58,-54.58 -60.29,0 -109.17,-48.88 -109.17,-109.17 0,-60.29 48.88,-109.17 109.17,-109.17 60.05,0 108.78,48.49 109.16,108.46 0.01,0.24 0.01,0.47 0.01,0.71 0,15.07 -12.22,27.29 -27.29,27.29 -15.07,0 -27.29,-12.22 -27.29,-27.29 0,-30.15 -24.44,-54.58 -54.58,-54.58 -30.15,0 -54.58,24.44 -54.58,54.58 0,30.15 24.44,54.58 54.58,54.58z"/>
   </g>
   <g>
    <path class="fil1" d="M163.75 491.25c60.29,0 109.17,48.88 109.17,109.17 0,15.03 -12.18,27.29 -27.29,27.29 -15.07,0 -27.29,-12.22 -27.29,-27.29 0,-30.15 -24.44,-54.58 -54.58,-54.58 -30.15,0 -54.58,24.44 -54.58,54.58l0 163.75c0,30.15 24.44,54.58 54.58,54.58 30.15,0 54.58,-24.44 54.58,-54.58 0,-15.07 12.22,-27.29 27.29,-27.29 15.11,0 27.29,12.26 27.29,27.29 0,60.29 -48.88,109.17 -109.17,109.17 -60.29,0 -109.17,-48.88 -109.17,-109.17l0 -163.75c0,-60.29 48.88,-109.17 109.17,-109.17z"/>
    <path class="fil1" d="M436.67 655c60.29,0 109.17,48.88 109.17,109.17 0,60.29 -48.88,109.17 -109.17,109.17 -60.05,0 -108.78,-48.49 -109.16,-108.46 -0.01,-0.24 -0.01,-0.47 -0.01,-0.71 0,-15.07 12.22,-27.29 27.29,-27.29 15.07,0 27.29,12.22 27.29,27.29 0,30.15 24.44,54.58 54.58,54.58 30.15,0 54.58,-24.44 54.58,-54.58 0,-30.15 -24.44,-54.58 -54.58,-54.58 -60.29,0 -109.17,-48.88 -109.17,-109.17 0,-60.29 48.88,-109.17 109.17,-109.17 60.05,0 108.78,48.49 109.16,108.46 0.01,0.24 0.01,0.47 0.01,0.71 0,15.07 -12.22,27.29 -27.29,27.29 -15.07,0 -27.29,-12.22 -27.29,-27.29 0,-30.15 -24.44,-54.58 -54.58,-54.58 -30.15,0 -54.58,24.44 -54.58,54.58 0,30.15 24.44,54.58 54.58,54.58z"/>
    <path class="fil1" d="M709.58 655c60.29,0 109.17,48.88 109.17,109.17 0,60.29 -48.88,109.17 -109.17,109.17 -60.05,0 -108.78,-48.49 -109.16,-108.46 -0.01,-0.24 -0.01,-0.47 -0.01,-0.71 0,-15.07 12.22,-27.29 27.29,-27.29 15.07,0 27.29,12.22 27.29,27.29 0,30.15 24.44,54.58 54.58,54.58 30.15,0 54.58,-24.44 54.58,-54.58 0,-30.15 -24.44,-54.58 -54.58,-54.58 -60.29,0 -109.17,-48.88 -109.17,-109.17 0,-60.29 48.88,-109.17 109.17,-109.17 60.05,0 108.78,48.49 109.16,108.46 0.01,0.24 0.01,0.47 0.01,0.71 0,15.07 -12.22,27.29 -27.29,27.29 -15.07,0 -27.29,-12.22 -27.29,-27.29 0,-30.15 -24.44,-54.58 -54.58,-54.58 -30.15,0 -54.58,24.44 -54.58,54.58 0,30.15 24.44,54.58 54.58,54.58z"/>
   </g>
  </g>
 </g>
</svg>
