<?xml version="1.0" encoding="UTF-8"?>
<!DOCTYPE svg PUBLIC "-//W3C//DTD SVG 1.1//EN" "http://www.w3.org/Graphics/SVG/1.1/DTD/svg11.dtd">
<!-- Creator: CorelDRAW 2021 (64-Bit) -->
<svg xmlns="http://www.w3.org/2000/svg" xml:space="preserve" width="0.894843in" height="0.465744in" version="1.1" style="shape-rendering:geometricPrecision; text-rendering:geometricPrecision; image-rendering:optimizeQuality; fill-rule:evenodd; clip-rule:evenodd"
viewBox="0 0 42.86 22.31"
 xmlns:xlink="http://www.w3.org/1999/xlink"
 xmlns:xodm="http://www.corel.com/coreldraw/odm/2003">
 <defs>
  <style type="text/css">
   <![CDATA[
    .fil1 {fill:black}
    .fil0 {fill:red}
    .fil2 {fill:white}
   ]]>
  </style>
 </defs>
 <g id="Layer_x0020_1">
  <metadata id="CorelCorpID_0Corel-Layer"/>
  <g id="_2665878498480">
   <path class="fil0" d="M31.16 3.33c0.06,-0.08 0.06,0.11 0.05,-0.15 -0.22,-0.11 -0.45,-0.25 -0.75,-0.28 -0.29,-0.03 -0.73,-0.07 -0.99,-0.07 0.04,0.29 0.43,0.34 0.7,0.38 0.34,0.05 0.67,0.09 0.99,0.13l0 -0zm3.79 -1.38c0.34,-0.14 0.44,-0.16 0.59,-0.52 0.07,-0.16 0.25,-0.75 0.2,-0.83 -0.13,0.24 -0.22,0.48 -0.39,0.7 -0.15,0.2 -0.37,0.38 -0.41,0.66l0 -0zm-2.03 7.57c-0.13,-0.48 -0.22,-0.86 -0.31,-1.38 -0.15,-0.86 0.1,-0.84 -0.13,-1.03 -0.17,-0.15 -0.19,-0.05 -0.21,0.11 -0.07,0.29 -0.06,0.09 -0.01,0.44 0.03,0.24 0.08,0.49 0.13,0.69 0.11,0.41 0.26,0.96 0.53,1.16l0 0zm-8.52 -5.54l0.04 0.03 -0.02 -0.15c-0.24,-0.18 -0.33,-0.23 -0.7,-0.31 -0.24,-0.05 -0.56,-0.11 -0.81,-0.14 -0.05,0.07 -0.01,0.25 0.09,0.27 0.48,0.09 0.93,0.2 1.4,0.3zm-7.98 -0.49c0.16,0.28 0.51,0.22 0.86,0.28 0.29,0.05 0.67,0.13 0.87,0.27l0.09 -0.1c-0.25,-0.35 -1.53,-0.59 -1.7,-0.55 -0.13,0.03 -0.21,-0.05 -0.12,0.09l0 -0zm2.2 0.14c0.71,-0 1.35,0.34 1.77,0.65 -0.4,-0.54 -1.3,-1.07 -2.27,-0.99 0.15,0.05 0.36,0.26 0.51,0.34zm8.7 6.54l-0.2 0.11c-0.42,0.2 -0.56,1.26 -0.56,1.4l0.46 -0.03c0.19,-1.11 0.09,-0.99 1.31,-1.35 0.52,-0.15 1.66,-0.55 1.71,-0.75 0.01,-0.19 -0.13,-0.21 -0.32,-0.27 -0.46,0.16 -2,0.9 -2.41,0.9l0 0zm-18.36 5.51l-0.03 0.31c0.28,0 0.55,-0.01 0.82,-0.02l0.84 0.04c0.08,-0.06 0.16,-0.1 0.22,-0.14 0.09,-0.06 0.15,-0.11 0.2,-0.16l0.06 -0.11 -2.13 0.08 0 0zm4.11 -11.02c0.67,-0.04 1.95,0.32 2.66,0.52 0.24,0.07 0.63,0.21 0.87,0.25 0.32,0.05 2.06,-0.58 2.27,-0.89 0.23,-0.33 -0.01,-0.63 -0.2,-0.75 -0.03,0.83 -0.66,0.73 -1.68,1.19 -0.19,0.09 -0.26,0.22 -0.53,0.15l-1.62 -0.54c-1.4,-0.4 -3.65,-0.41 -4.84,0.32 0.14,0.12 0.51,-0.07 0.68,-0.12 0.43,-0.14 1.16,-0.32 1.62,-0.31 0.42,0.01 0.46,0.13 0.76,0.2l0 0zm-9.33 2.8c0.19,0.33 -0.09,0.28 0.5,0.36 0.24,0.03 0.47,0.07 0.71,0.1 0.61,0.07 0.97,0.02 1.53,0.03 0.19,-0.05 0.75,-0.35 0.91,-0.45 -0.05,-0.19 0.03,-0.31 -0.17,-0.38 -0.64,0.22 -0.71,0.55 -1.6,0.53 -0.62,-0.01 -1.31,-0.08 -1.88,-0.19l0 0zm4.34 1.18l-1.54 0.27c-0.46,0.08 -1.04,0.19 -1.45,0.33 -0.05,0.58 0.41,0.24 1.61,0.01 1.82,-0.35 2.33,-0.35 4.08,-0.17 0.7,0.07 1.41,-0.32 1.97,-0.23 -0.05,-0.51 -0.62,-0.32 -0.98,-0.25 -0.37,0.07 -0.76,0.2 -1.19,0.17 -0.38,-0.03 -0.82,-0.13 -1.2,-0.14 -0.37,-0.02 -0.93,-0.12 -1.3,0.02l0 0zm-1.21 7.03c0.15,-0.18 0.73,-0.27 1.04,-0.35 0.39,-0.11 0.7,-0.23 1.04,-0.35 0.11,-0.14 0.19,-0.38 0.27,-0.59 -0.3,0.02 -0.46,0.3 -1.3,0.54 -0.48,0.13 -1.03,0.23 -1.42,0.45 0.09,0.17 0.24,0.2 0.36,0.31l0 0zm-2.92 -1.88c0.57,-0.06 0.56,-0.01 0.98,0.18 0.26,0.12 0.56,0.32 0.82,0.4 0.6,-0.26 1.7,-0.27 2.23,-0.79 0.08,-0.09 -0.27,-0.27 -0.19,-0.15 -0.25,0.17 -1.72,0.43 -2.17,0.5 -0.34,0.03 -0.36,-0.02 -0.73,-0.11 -0.76,-0.18 -1.98,-1 -2.87,-0.74 0.02,0.14 0.05,0.19 0.14,0.22 0.32,0.12 0.37,0.02 1,0.17 0.21,0.06 0.69,0.16 0.8,0.3zm1.91 1.25c-0.12,-0.18 -1.25,-0.88 -2.01,-0.81 0.07,0.13 0.8,0.35 0.98,0.41 0.29,0.1 0.79,0.39 1.03,0.4zm-1.96 0.02c0.99,0.07 2.72,1.08 3.37,1.51 -0.11,-0.27 -0.5,-0.47 -0.78,-0.64 -0.3,-0.18 -0.66,-0.38 -0.97,-0.53 -0.6,-0.29 -1.47,-0.71 -2.26,-0.68 -0.03,0.45 0.24,0.28 0.63,0.34l0 0zm16.37 5.07c-0.78,0.04 -1.59,0.16 -2.36,0.23 -1.6,0.14 -3.03,0.33 -4.62,0.49 -0.77,0.08 -1.54,0.2 -2.31,0.28 -1.24,0.16 -2.44,0.29 -3.68,0.46 -0.64,0.08 -1.24,0.15 -1.89,0.24 -0.32,0.04 -1.81,0.12 -1.89,0.15 -0.06,0.05 -0.11,0.08 -0.14,0.23 -0.07,0.29 2.79,-0.11 3.34,-0.19 4.82,-0.64 17.95,-2.26 22.28,-1.91 0.27,0.02 0.56,0.04 0.8,0.1 0.29,0.07 0.43,0.25 0.68,0.16 0.07,-0.23 0.03,-0.31 -0.16,-0.39l-0.27 -0c-0.27,-0.03 -0.41,-0.09 -0.82,-0.14 -0.88,-0.13 -2.71,-0.08 -3.61,-0.06 -1.77,0.06 -3.62,0.18 -5.34,0.36l0 0zm-18.09 -0.26c-0.23,0.54 0.74,0.28 1.15,0.23 0.45,-0.11 2.9,-0.06 3.25,-0.47 -0.04,-0.21 -0.11,-0.24 -0.27,-0.32 -0.19,0.23 -0.6,0.23 -0.96,0.25 -0.35,0.03 -0.69,0.07 -1.05,0.1 -0.36,0.03 -1.87,0.12 -2.12,0.21l0 -0zm2.64 -1.99c0.1,0.26 0.41,0.45 0.81,0.47 0.38,0.02 0.68,-0.1 0.97,-0.22 0.69,-0.11 0.95,-0.03 1.39,0.31 0.31,0.23 0.79,0.5 0.88,0.91 0.37,-0.56 -0.54,-0.77 -0.99,-1.24 -0.15,-0.17 -0.26,-0.26 -0.47,-0.34 -0.98,-0.39 -1.31,0.62 -2.59,0.12l0 0zm-4.33 -1.48l0.02 0.22c0.28,0.15 1.01,-0.09 1.51,-0.02 0.45,0.06 0.76,0.25 1.3,0.29 0.6,0.01 1.58,0.06 1.65,-0.53 -0.08,-0.2 -0.12,-0.2 -0.31,-0.28 -0.1,0.23 0,0.29 -0.27,0.39 -0.47,0.17 -1.28,0.15 -1.72,0.05 -0.35,-0.08 -0.8,-0.24 -1.04,-0.25 -0.72,-0.06 -0.89,0.12 -1.14,0.13l0 -0zm5.09 -3.49c-0.01,0.28 -0.22,0.52 0.74,0.33 1.06,-0.22 2.18,-0.77 3.45,-0.22 -0.07,-0.31 -0.45,-0.41 -0.81,-0.47 -0.36,-0.06 -0.79,-0.12 -1.19,-0.06 -0.68,0.09 -1.45,0.43 -2.19,0.42l0 0zm5.02 -1.14l1.15 -0.33 0.13 -0.37c-0.51,-0.09 -1.41,0.51 -2.68,0.33 -0.46,-0.07 -1.01,-0.07 -1.43,0.06 -0.26,0.08 -0.94,0.29 -1.11,0.46 0.22,0.12 0.58,-0.11 0.82,-0.18 1.09,-0.32 2.1,-0.13 3.13,0.02l-0 0zm-2.02 -3.57c0.3,0.05 3.64,0.31 3.73,-0.21 -0.27,-0.07 -1.59,-0.04 -1.96,-0.04 -0.68,0 -1.19,0.05 -1.77,0.26zm4.47 0.21c0.13,-0.16 0.14,-0.16 0.13,-0.31l-0.41 -0.07c0.02,0.29 0.11,0.26 0.29,0.39l0 0zm-4.58 -2.35c-0.04,0.52 0.56,0.31 1.07,0.16 0.41,-0.12 0.77,-0.19 1.22,-0.27 0.64,-0.11 2.14,-0.35 2.66,-0.11 0.2,-0.34 -0.75,-0.42 -1.01,-0.42 -0.74,0 -2.08,0.13 -2.74,0.36 -0.53,0.18 -1.14,0.25 -1.21,0.28l-0 0zm20.25 11.72c-0.12,0.22 -0.49,0.41 -0.66,0.61 -0.14,0.15 -0.31,0.71 -0.32,0.96l0.37 0c0.41,-1.66 0.79,-0.49 1.59,-2.26 0.37,-0.83 1.08,-1.73 1.61,-2.19 1.18,-1.05 4.01,-2.32 5.61,-1.38 -0.11,-0.25 -0.02,-0.24 -0.17,-0.45 -0.37,-0.05 -0.81,-0.27 -1.67,-0.2 -0.45,0.04 -0.95,0.15 -1.35,0.28 -1.69,0.53 -2.73,1.24 -3.76,2.68 -0.69,0.97 -0.68,1.74 -1.25,1.95l0 -0zm1.21 -4.43c-0.13,-0.08 -0.04,0.08 -0.21,-0.43l-0.39 -1.15c-0.06,-0.12 -0.05,-0.13 -0.21,-0.13 0.02,0.28 0.52,1.65 0.66,1.84 0.07,-0.06 0.06,-0.06 0.14,-0.12l0 -0zm3.93 -10.71c-0.05,0.06 0.02,0 -0.07,0.06l-1.65 0.75c-1.1,0.53 -1.11,2.41 -2.8,3.71 -0.25,0.19 -0.6,0.26 -0.85,0.44 0.25,0.15 0.48,-0.18 0.88,-0 0.21,-0.04 0.73,-0.53 0.86,-0.66 0.7,-0.72 1.19,-2.21 1.79,-2.93 0.29,-0.35 1.54,-0.8 2.06,-1.06 0.16,-0.08 0.37,-0.2 0.52,-0.26 0.08,-0.04 0.13,-0.1 0.17,-0.14 0.06,0.04 0.17,0.25 0.39,0.13 0.33,-0.18 0.62,-0.47 0.99,-0.62l0.03 0.02c0.03,-0.27 0.11,-0.35 0.12,-0.6 -0.22,0.04 -0.48,0.3 -0.64,0.44 -0.19,0.16 -0.37,0.32 -0.63,0.46 -0.12,-0.1 -0.23,-0.19 -0.35,-0.29 -0.01,0.03 -0.11,-0.01 -0.16,0.04 -0.2,0.18 -0.4,0.48 -0.66,0.52l-0 -0zm-5.51 4.34c-0.03,-0.09 0.09,-0.56 0.2,-0.7l0.48 0.08 0 -0.18c-0.26,-0.11 -0.38,-0.24 -0.77,-0.21 -0.08,0.13 -0.33,1.04 -0.32,1.23l0.42 -0.21 0 0zm-2.58 -3.29c0.13,-0.05 0.63,0.1 0.79,0.16 0.52,0.18 1.32,0.53 1.8,0.8 0.35,0.2 0.72,0.05 0.63,-0.17 -0.11,0.18 -0.27,0.14 -0.47,0.06 -0.16,-0.07 -0.3,-0.15 -0.45,-0.23 -0.66,-0.35 -2.17,-1.06 -2.84,-1.09 0.09,0.13 0.38,0.34 0.54,0.47l0 -0zm2.96 5.45c-0.01,-0.21 0.8,-0.69 0.76,-1.19 -0.01,-0.08 -0.18,-0.15 -0.2,-0.02 -0.32,0.23 -1.14,1.04 -1.23,1.47l0.67 -0.25zm9.39 6.3c0.15,0.58 0.58,0.83 1.14,0.94 0.51,0.09 1.43,-0 1.97,-0.03 1.52,-0.08 0.78,-0.7 1.45,-1.69 0.22,-0.32 0.08,-0.44 0.17,-0.84 0.14,-0.68 -0.27,-1.08 -0.55,-1.45 -0.55,-0.73 -1.23,-2.16 -1.96,-3.24 -0.17,-0.26 -0.19,-0.42 -0.52,-0.47l0.76 1.19c0.21,0.36 0.47,0.89 0.72,1.25 0.27,0.39 0.51,0.78 0.77,1.2 0.68,1.06 0.57,0.77 0.47,1.27 -0.09,0.45 0.11,0.46 -0.16,0.85 -0.64,0.94 0.15,1.41 -1.32,1.62 -0.42,0.06 -1.43,0.23 -1.8,0.17 -0.77,-0.11 -0.9,-0.65 -1.16,-0.78l-0 0zm0.87 -0.77c-0.14,-0.24 -0.3,-0.35 -0.48,-0.57 -0.46,-0.55 -0.73,-1.51 -1.36,-1.78l0.01 -0c0.05,0.33 0.22,0.53 0.38,0.73l0.9 1.17c0.12,0.14 0.13,0.14 0.28,0.25 0.09,0.07 0.15,0.14 0.27,0.21l0 0zm0.27 -5.05l-0.12 -0.24c-0.33,0.02 -0.47,0.18 -0.66,-0.16 -0.21,-0.04 -0.9,-0.75 -1.24,-0.87 0.02,0.25 0.09,0.46 0.35,0.64l1.01 0.73c0.26,0.12 0.39,-0.06 0.66,-0.1l-0 0zm-2.33 -7.07c0.07,0.66 0.23,1.13 0.56,1.69 0.56,0.93 0.34,0.17 0.76,1.6 0.09,0.32 0.2,0.63 0.32,0.89 0.11,0.26 0.25,0.56 0.44,0.76 0.37,0.4 0.08,0.64 0.46,0.76 -0.07,-0.77 -0.47,-1.07 -0.66,-1.76 -0.08,-0.3 -0.15,-0.66 -0.29,-0.91l-0.91 -1.54c-0.26,-0.42 -0.24,-0.42 -0.29,-0.96 -0.03,-0.38 -0.06,-0.75 -0.08,-1.13 -0.02,-0.43 0.04,-0.83 -0.3,-0.94 0.01,0.49 -0.04,1.12 0,1.55l0 0zm-0.44 -1.92c-0.09,-0.16 -0.13,-0.23 -0.31,-0.33 0.03,0.3 -0.05,0.45 -0.04,0.68 0.2,-0.12 0.45,-0.18 0.36,-0.35z"/>
   <path class="fil1" d="M5.83 15.05c-0.24,-0.01 -0.73,-0.3 -1.03,-0.4 -0.18,-0.06 -0.91,-0.28 -0.98,-0.41 0.76,-0.07 1.89,0.63 2.01,0.81zm0.63 -7.1c-0.31,0.19 -0.73,0.39 -1.04,0.57 -0.18,0.1 -0.38,0.17 -0.51,0.31 -0.2,0.19 -0.19,0.42 0.17,0.41 0.41,-0.14 1,-0.25 1.45,-0.33 0.94,-0.16 1.88,-0.33 2.84,-0.29 0.38,0.02 0.82,0.11 1.2,0.14 0.43,0.04 0.82,-0.1 1.19,-0.17 0.36,-0.07 0.92,-0.26 0.98,0.25 0.06,0.22 -0.21,0.72 -0.31,0.95 -0.07,0.17 -0.14,0.3 -0.21,0.47 -0.11,0.24 -0.09,0.27 -0.31,0.35 -0.65,0.14 -1.24,0.33 -1.92,0.4 -0.76,0.08 -1.3,-0.11 -2.14,0.04 -0.88,0.15 -2.08,0.75 -2.49,1.51 -0.13,0.24 -0.05,0.34 0.2,0.36 0.74,0.01 1.51,-0.33 2.19,-0.42 0.4,-0.06 0.83,0 1.19,0.06 0.36,0.06 0.74,0.15 0.81,0.47 -0.04,0.35 -0.41,0.71 -0.67,0.93 -0.39,0.34 -2.43,1.18 -2.93,0.76l-0.42 -0.33c-0.25,-0.08 -0.55,-0.28 -0.82,-0.4 -0.42,-0.2 -0.41,-0.24 -0.98,-0.18 -0.32,0.04 -0.6,0.15 -0.8,0.33 -0.23,0.2 -0.33,0.55 0.11,0.61 0.79,-0.03 1.66,0.39 2.26,0.68 0.31,0.15 0.67,0.34 0.97,0.53 0.34,0.21 0.79,0.42 0.78,0.81 -0.23,0.04 -0.65,0.25 -1.4,0.27 -0.77,0.02 -1.36,-0.23 -1.54,0.04 -0.03,0.48 0.34,0.59 0.49,0.83 1.28,0.5 1.6,-0.51 2.59,-0.12 0.21,0.08 0.32,0.18 0.47,0.34 0.44,0.48 1.35,0.68 0.99,1.24 -0.64,0.97 -3.89,1.81 -5.03,2.16 -0.43,0.13 -0.73,0.16 -0.75,0.43 -0,0.07 0.25,0.05 0.42,0.04 0.08,-0.03 1.57,-0.11 1.89,-0.15 0.65,-0.09 1.25,-0.15 1.89,-0.24 1.24,-0.17 2.44,-0.3 3.68,-0.46 0.77,-0.08 1.54,-0.2 2.31,-0.28 1.59,-0.16 3.02,-0.35 4.62,-0.49 0.76,-0.06 1.58,-0.19 2.36,-0.22 1.73,-0.18 3.58,-0.3 5.34,-0.36 0.91,-0.02 2.73,-0.07 3.61,0.06 0.45,0.07 1.19,0.49 1.1,0.15 -0.19,-0.71 -1.78,-0.63 -2.57,-0.64 0.01,-0.25 0.18,-0.81 0.32,-0.96 0.17,-0.2 0.5,-0.39 0.72,-0.52 0.52,-0.33 0.51,-1.07 1.2,-2.04 1.03,-1.44 2.07,-2.15 3.76,-2.68 0.81,-0.25 2.78,-0.58 3.19,0.38 0.23,0.37 0.26,0.67 0.55,1.04 0.25,0.31 0.43,0.5 0.64,0.89 0.26,0.13 0.39,0.67 1.16,0.78 0.37,0.05 1.38,-0.11 1.8,-0.17 1.46,-0.21 0.68,-0.69 1.32,-1.62 0.27,-0.39 0.07,-0.4 0.16,-0.85 0.1,-0.51 0.2,-0.22 -0.48,-1.27 -0.27,-0.42 -0.5,-0.81 -0.77,-1.2 -0.25,-0.36 -0.5,-0.89 -0.72,-1.25l-0.76 -1.19 -0.04 -0.04c-0.07,-0.12 -0,-0.02 -0.07,-0.1 -0.03,-0.04 -0.06,-0.06 -0.1,-0.1 -0.06,-0.07 -0.1,-0.11 -0.15,-0.17 -0.38,-0.12 -0.09,-0.36 -0.46,-0.76 -0.31,-0.34 -0.62,-1.17 -0.75,-1.65 -0.42,-1.43 -0.2,-0.67 -0.76,-1.6 -0.68,-1.14 -0.36,-2.22 -0.58,-3.32 -0.03,-0.17 -0.12,-0.29 -0.34,-0.21 -0.16,0.06 -0.29,0.18 -0.43,0.27 0.03,-0.23 0.11,-0.39 0.06,-0.7 -0.04,-0.23 -0.13,-0.29 -0.38,-0.28 -0.23,0 -0.38,0.13 -0.49,0.23 -0.41,0.39 -0.63,1.3 -2.04,1.81 -0.73,0.27 -1.43,0.28 -2.2,0.28 -0.48,-0 -1.6,-0.12 -1.88,0.18 -0.09,0.1 -0.01,0.32 0.28,0.32 0.26,0.01 0.69,0.06 0.98,0.1 0.12,0.02 0.74,0.09 0.71,0.4 -0.09,0.56 -2.16,1.36 -2.66,1.47 -0.5,0.08 -0.95,0.17 -1.29,-0.03l-0.78 -0.61c-0.16,-0.13 -1.21,-0.93 -1.22,-0.94 0.67,0.03 2.18,0.74 2.84,1.09 0.15,0.08 0.29,0.18 0.45,0.24 0.2,0.08 0.36,0.1 0.47,-0.08 -0.19,-0.35 -0.28,-0.29 -0.62,-0.47 -0.23,-0.12 -0.45,-0.26 -0.68,-0.37 -1.33,-0.66 -3.79,-1.56 -5.01,-0.62 -0.11,0.08 -0.01,0.32 0.25,0.4 0.25,0.03 0.57,0.09 0.81,0.14 0.21,0.04 0.72,0.19 0.68,0.43 -0.15,0.31 -0.89,0.72 -1.36,0.72 -1.41,-1.23 -3.15,-2.42 -5.1,-2.21 -2.19,0.22 -1.99,1.07 -1.4,0.91 0.17,-0.04 1.44,0.2 1.7,0.55 -0.42,0.38 -0.49,0.36 -1.02,0.52 -0.44,0.13 -0.62,0.24 -1.06,0.07 -1.64,-0.42 -2.57,-0.87 -4.61,-0.55 -1.22,0.19 -2.34,0.7 -3.19,1.54 -0.14,0.14 -0.24,0.2 -0.24,0.44 0.14,0.1 0.16,0.08 0.34,0.09 0.07,-0.03 0.68,-0.09 1.21,-0.28 0.66,-0.23 2,-0.36 2.74,-0.36 0.26,0 1.21,0.09 1.01,0.43 -0,0.12 -0.35,0.51 -0.45,0.63 -0.42,0.51 -0.74,0.76 -1.27,0.64 -1.47,-0.35 -2.86,0.02 -4.2,0.39l-0.11 -0c-0.16,0.1 -0.72,0.4 -0.91,0.45l0 -0zm28.48 -6c0.04,-0.28 0.26,-0.46 0.41,-0.66 0.17,-0.22 0.25,-0.46 0.39,-0.7 0.04,0.08 -0.13,0.67 -0.2,0.83 -0.16,0.36 -0.25,0.38 -0.59,0.52l-0 0zm-0.29 0.13c0.12,0.1 0.23,0.34 0.37,0.29 0.28,-0.1 0.42,-0.31 0.61,-0.47 0.16,-0.14 0.42,-0.4 0.64,-0.44 -0,0.08 -0.02,0.15 -0.15,0.58 -0.11,0.54 -0.55,1.16 -0.33,1.7 0.17,0.43 0.81,1.61 1.09,2.08 0.15,0.25 0.3,0.41 0.28,0.75 -0.03,0.71 -0.33,1.05 0.02,1.75 0.05,0.16 1.08,0.86 1.23,1 0.28,0.27 0.37,0.12 0.69,0.05l0.12 0.24c0.39,0.63 0.76,1.21 1.16,1.8 0.24,0.35 1.06,1.41 1.09,1.86 0.04,0.47 -0.31,0.81 -0.39,1.12 -0.14,0.54 0.19,0.89 -0.28,1.16 -0.38,0.21 -0.76,-0.09 -1.02,-0.26 -0.24,-0.15 -0.67,-0.45 -0.82,-0.63 -0.12,-0.07 -0.18,-0.14 -0.27,-0.21 -0.15,-0.11 -0.16,-0.11 -0.28,-0.25l-0.9 -1.17c-0.16,-0.2 -0.32,-0.4 -0.38,-0.73l-0.01 0c-0.26,-0.4 -0.5,-0.54 -1.11,-0.67 -1.21,-0.24 -2.57,-0.95 -3.1,-2.14 -0.2,-0.44 -0.38,-0.73 -0.49,-1.14 -0.05,-0.2 -0.14,-0.47 -0.17,-0.71 -0.05,-0.36 0.07,-0.63 0.03,-0.74 -0.35,-0.83 -0.64,1.26 -0.66,1.46 -0.46,-0.11 -1.41,0.39 -1.09,0.69 0.04,0.03 0.12,-0.04 0.19,-0.01 0.29,0.06 0.26,0.1 0.47,0.34 0.47,0.53 0.47,1.41 0.3,2.08 -0.17,0.66 -0.35,0.63 -0.97,1.19 -0.28,0.25 -0.36,0.31 -0.6,0.67 -0.08,0.06 -0.07,0.06 -0.14,0.12 -0.14,-0.19 -0.64,-1.56 -0.66,-1.84 -0.03,-0.12 -0.47,-0.09 -0.69,-0.07l-1.87 0.13c-0,-0.14 0.14,-1.2 0.56,-1.4 0.44,-0.15 2.53,-0.72 2.61,-1.01 0.06,-0.29 -0.18,-0.29 -0.45,-0.25 -0.19,0.03 -0.38,0.09 -0.57,0.12l-0.67 0.25c0.09,-0.43 0.91,-1.24 1.23,-1.47 0.07,-0.07 0.18,-0.19 0.09,-0.33 -0.4,-0.17 -0.63,0.15 -0.88,0 0.25,-0.19 0.6,-0.25 0.85,-0.44 1.68,-1.3 1.69,-3.18 2.8,-3.71l1.65 -0.75c0.2,-0.1 0.84,-0.4 0.88,-0.62l0 -0zm-19.88 9.49c0.55,0.05 1.13,0.08 1.63,-0.1 0.36,-0.13 0.82,-0.51 0.73,-1.01 -0.36,-0.21 -0.92,-0.21 -1.37,-0.21 -0.56,0 -0.5,0.01 -0.7,0.45 -0.09,0.19 -0.3,0.67 -0.28,0.87l0 -0zm-12.79 1.53c0.85,-0.15 2.12,0.52 2.87,0.75 0.37,0.11 0.44,0.18 0.74,0.15 0.45,-0.04 1.81,-0.36 2.11,-0.5 0.22,-0.09 -0.07,-0.33 -0.2,-0.35 -0.48,-0.1 -1.39,0.66 -2.29,0.19 -0.4,-0.21 -1.14,-0.71 -1.58,-0.88 -0.36,-0.14 -0.68,0.01 -1.05,0.07 -0.36,0.07 -0.83,0.05 -0.87,0.27 -0.02,0.13 0.15,0.32 0.26,0.3l0 -0zm8.58 2.91c-0.77,0.3 -2,1.1 -2.87,0.39 -0.19,-0.21 -0.58,-0.59 -0.85,-0.73 -0.12,-0.11 -0.27,-0.14 -0.36,-0.31 0.39,-0.22 0.95,-0.31 1.42,-0.45 0.83,-0.23 1,-0.51 1.3,-0.54 -0.15,0.39 -0.49,0.95 -0.56,1.3l0.3 0 2.06 0.01c-0.13,0.15 -0.23,0.23 -0.44,0.31l0 0zm-0.6 -2.36l5.39 -0.19 -0.7 1.69 -0.79 0.02c-0.39,0.58 -1.53,3.95 -2.11,4.98l-2.05 0.31c0.32,-0.77 2.32,-5.06 2.28,-5.33l-2.63 0.08c0.14,-0.48 0.51,-1.17 0.61,-1.55l0 0zm18.74 -1.3c-0.18,1.1 -1.54,5.89 -1.81,6.57l-2.13 0c0.24,-0.65 1.23,-4.22 1.37,-4.7l-1.21 0.07 -1.59 4.74 -2.32 0.15 4.3 -13.11 2.12 -0.07c-0.44,1.8 -1.4,4.84 -1.82,6.51 0.86,-0.07 2.13,-0.1 3.07,-0.16l-0 0zm-12.51 7.29l0.49 -1.39c0.13,-0.35 1.82,-4.85 1.83,-4.87 0.17,-0.03 3.43,-0.21 3.78,-0.22l-0.74 1.85 -2.17 0.14 -0.93 2.88 2.41 -0.22 -0.54 1.44 -4.14 0.39 0 0zm1.01 -4.2c-0.46,0.09 -0.98,0.06 -1.39,0.15l-0.29 0.81 1.36 -0.12 -0.58 1.41 -1.31 0.1 -0.29 0.75 1.35 -0.12c-0.02,0.1 -0.41,1.12 -0.44,1.26l-3.22 0.41 1.84 -4.52 0.7 -0.05 0.85 -2.03 2.23 -0.09 -0.82 2.05 -0 0zm-4.06 -7.34c0.01,0.15 0,0.16 -0.13,0.31 -0.18,-0.13 -0.26,-0.09 -0.29,-0.39l0.41 0.07 0 -0zm-0.09 -3.42c-0.22,-0.2 -0.35,-0.19 -0.76,-0.2 -0.47,-0.01 -1.2,0.17 -1.62,0.31 -0.16,0.05 -0.53,0.24 -0.68,0.12 1.18,-0.73 3.43,-0.72 4.84,-0.32l1.62 0.54c0.27,0.06 0.34,-0.03 0.53,-0.12 1.02,-0.45 1.65,-0.39 1.68,-1.22 -0,-0.18 -0.36,-0.42 -0.56,-0.49 0.97,-0.08 1.87,0.45 2.27,0.99 0.24,0.35 0.55,0.67 0.73,1.14l-5.58 0.49c-0.57,-0.05 -1.99,-0.87 -2.46,-1.25l0 0zm-9.33 2.8c0.57,0.11 1.26,0.18 1.88,0.19 0.89,0.01 0.96,-0.31 1.6,-0.53 0.04,-0.33 -0.3,-0.38 -0.77,-0.45 -0.34,-0.05 -0.86,-0.1 -1.21,-0.04 -0.35,0.06 -1.73,0.38 -1.79,0.74l0.29 0.09 0 -0zm4.83 0.73c0.58,-0.21 1.08,-0.25 1.77,-0.26 0.38,-0 1.69,-0.03 1.96,0.04 -0.09,0.52 -3.43,0.27 -3.73,0.21zm19.77 -1.22l-0.42 0.21c-0.01,-0.19 0.24,-1.1 0.32,-1.23 0.38,-0.03 0.5,0.1 0.77,0.21l0 0.18c-0.05,0.37 -0.36,0.5 -0.67,0.63l0 0zm-11.11 2.45c0.36,0.16 1.68,0.3 1.78,1.06 0.03,0.26 -0.56,2 -0.67,2l-5.78 0.15 2.51 -6.14c1.65,-0.11 3.58,-0.23 5.22,-0.25 -0.06,0.88 -0.54,1.72 -1,2.11 -0.71,0.6 -1.69,0.77 -2.06,1.06l0 0zm4.05 2.96l0.48 -1.74 -1 0.01 -0.51 1.79 -1.22 0.04 2.01 -6.24 3.72 -0.17c-0.14,0.52 -0.49,1.4 -0.67,1.92l-1.23 3.44 -0.33 0.92 -1.24 0.02 0 0zm-19.12 7.48c0.25,-0.09 1.76,-0.18 2.12,-0.21 0.36,-0.03 0.7,-0.07 1.05,-0.1 0.36,-0.03 0.76,-0.02 0.96,-0.25 -0.13,-0.56 -1.62,-0.63 -2.07,-0.59 -0.59,0.05 -1.1,0.34 -1.65,0.56 -0.26,0.1 -0.61,0.17 -0.73,0.4 0.09,0.18 0.1,0.18 0.32,0.19l-0 0zm-1.69 -3.47c0.25,-0.02 0.42,-0.19 1.14,-0.13 0.24,0.02 0.69,0.17 1.04,0.25 0.44,0.1 1.26,0.12 1.72,-0.05 0.27,-0.1 0.25,-0.2 0.27,-0.39 -0.08,-0.9 -2.38,-0.82 -2.9,-0.75 -0.54,0.07 -1.69,0.28 -1.74,0.78 0.13,0.2 0.25,0.21 0.46,0.28l0 0zm20.9 -7.73l0.96 0.08 0.39 -1.07 -0.98 -0.05c-0.16,0.23 -0.3,0.73 -0.37,1.04zm-5.52 -0c0.61,-0.06 1.63,-0.28 1.97,-0.8 0.43,-0.65 -0.26,-0.81 -0.8,-0.82 -0.44,-0 -0.49,-0.05 -0.64,0.29 -0.18,0.41 -0.43,0.88 -0.52,1.32l0 -0zm-4.36 3.2c-0.36,0.02 -0.57,-0.05 -0.92,-0.1 -1.02,-0.14 -2.04,-0.33 -3.13,-0.02 -0.24,0.07 -0.6,0.3 -0.82,0.18 0.18,-0.17 0.85,-0.38 1.11,-0.46 0.42,-0.13 0.97,-0.13 1.43,-0.06 1.27,0.18 2.17,-0.41 2.68,-0.33l-0.35 0.79 0 0z"/>
   <path class="fil2" d="M35.9 0l0 0 0 0zm-1.32 2.2c0.01,-0.01 0.01,-0.01 0.02,-0.02 -0.01,0.01 -0.01,0.01 -0.02,0.02zm1.54 -0.16c-0.11,0.54 -0.55,1.16 -0.33,1.7 0.17,0.43 0.81,1.61 1.09,2.08 0.15,0.25 0.3,0.41 0.28,0.75 -0.03,0.71 -0.33,1.05 0.02,1.75 0,0.01 0.01,0.03 0.03,0.05 0.02,0.24 0.09,0.44 0.35,0.62l1.01 0.73c0.26,0.12 0.39,-0.06 0.66,-0.1 0.39,0.63 0.76,1.21 1.16,1.8 0.24,0.35 1.06,1.41 1.09,1.86 0.03,0.47 -0.31,0.81 -0.39,1.12 -0.14,0.54 0.19,0.89 -0.28,1.16 -0.38,0.21 -0.76,-0.09 -1.02,-0.26 -0.24,-0.15 -0.67,-0.45 -0.82,-0.63 -0.14,-0.24 -0.3,-0.35 -0.48,-0.57 -0.46,-0.55 -0.73,-1.5 -1.35,-1.77l-0 -0.01 -0.01 0c-0.26,-0.4 -0.5,-0.54 -1.11,-0.67 -1.21,-0.24 -2.57,-0.95 -3.1,-2.14 -0.13,-0.48 -0.22,-0.86 -0.31,-1.38 -0.15,-0.86 0.1,-0.84 -0.13,-1.03 -0.17,-0.15 -0.09,0.15 -0.18,-0.18 -0.33,-0.85 -0.65,1.26 -0.67,1.46 -0.46,-0.11 -1.41,0.39 -1.09,0.69 0.04,0.03 0.12,-0.04 0.19,-0.01 0.29,0.06 0.26,0.1 0.47,0.34 0.47,0.53 0.47,1.41 0.3,2.08 -0.17,0.66 -0.35,0.63 -0.97,1.19 -0.28,0.25 -0.36,0.31 -0.6,0.67 -0.13,-0.08 -0.04,0.08 -0.21,-0.43l-0.39 -1.15c-0.06,-0.12 -0.05,-0.13 -0.21,-0.13 -0.03,-0.12 -0.47,-0.09 -0.69,-0.07l-1.41 0.1c0.19,-1.11 0.09,-0.99 1.31,-1.35 0.52,-0.15 1.66,-0.55 1.71,-0.75 0.01,-0.19 -0.13,-0.21 -0.32,-0.27 0.06,-0.29 -0.18,-0.29 -0.45,-0.25 -0.19,0.03 -0.38,0.09 -0.57,0.12 -0.01,-0.21 0.8,-0.69 0.76,-1.19 -0.01,-0.05 -0.08,-0.1 -0.14,-0.09 0.05,-0.07 0.09,-0.16 0.03,-0.27 0.21,-0.04 0.73,-0.53 0.86,-0.66 0.7,-0.72 1.19,-2.21 1.79,-2.93 0.29,-0.35 1.54,-0.8 2.06,-1.06 0.16,-0.08 0.37,-0.2 0.52,-0.26 0.08,-0.04 0.13,-0.1 0.17,-0.14 0.06,0.04 0.17,0.25 0.39,0.13 0.33,-0.18 0.62,-0.47 0.99,-0.62l0 0z"/>
   <path class="fil2" d="M14.77 11.57c0.55,0.05 1.13,0.08 1.63,-0.1 0.36,-0.13 0.82,-0.51 0.73,-1.01 -0.36,-0.21 -0.92,-0.21 -1.37,-0.21 -0.56,0 -0.5,0.01 -0.7,0.45 -0.09,0.19 -0.3,0.67 -0.28,0.87l0 -0zm-4.81 2.08l5.39 -0.19 -0.7 1.69 -0.79 0.02c-0.39,0.58 -1.53,3.95 -2.11,4.98l-2.05 0.31c0.32,-0.77 2.32,-5.06 2.28,-5.33l-2.63 0.08c0.14,-0.48 0.51,-1.17 0.61,-1.55l0 0zm18.74 -1.3c-0.18,1.1 -1.54,5.89 -1.81,6.57l-2.13 0c0.24,-0.65 1.23,-4.22 1.37,-4.7l-1.21 0.07 -1.59 4.74 -2.32 0.15 4.3 -13.11 2.12 -0.07c-0.44,1.8 -1.4,4.84 -1.82,6.51 0.86,-0.07 2.13,-0.1 3.07,-0.16l-0 0zm-12.51 7.29l0.49 -1.39c0.13,-0.35 1.82,-4.85 1.83,-4.87 0.17,-0.03 3.43,-0.21 3.78,-0.22l-0.74 1.85 -2.17 0.14 -0.93 2.88 2.41 -0.22 -0.54 1.44 -4.14 0.39 0 0zm1.01 -4.2c-0.46,0.09 -0.98,0.06 -1.39,0.15l-0.29 0.81 1.36 -0.12 -0.58 1.41 -1.31 0.1 -0.29 0.75 1.35 -0.12c-0.02,0.1 -0.41,1.12 -0.44,1.26l-3.22 0.41 1.84 -4.52 0.7 -0.05 0.85 -2.03 2.23 -0.09 -0.82 2.05 -0 0zm0.01 -6.01c0.36,0.16 1.68,0.3 1.78,1.06 0.03,0.26 -0.56,2 -0.67,2l-5.78 0.15 2.51 -6.14c1.65,-0.11 3.58,-0.23 5.22,-0.25 -0.06,0.88 -0.54,1.72 -1,2.11 -0.71,0.6 -1.69,0.77 -2.06,1.06l0 -0zm4.05 2.96l0.48 -1.74 -1 0.01 -0.51 1.79 -1.22 0.04 2.01 -6.23 3.72 -0.17c-0.14,0.52 -0.49,1.4 -0.67,1.92l-1.23 3.44 -0.33 0.92 -1.24 0.02 0 0zm0.1 -3.72l0.96 0.08 0.39 -1.07 -0.98 -0.05c-0.16,0.23 -0.3,0.73 -0.37,1.04zm-5.52 -0c0.61,-0.06 1.63,-0.28 1.97,-0.8 0.43,-0.65 -0.26,-0.81 -0.8,-0.82 -0.44,-0 -0.49,-0.05 -0.64,0.29 -0.18,0.41 -0.43,0.88 -0.52,1.32l0 0z"/>
  </g>
 </g>
</svg>
